<svg width="1363" height="301" viewBox="0 0 1363 301" fill="none" xmlns="http://www.w3.org/2000/svg">
<rect width="1363" height="301" rx="15" fill="#F0F0F0"/>
<path d="M0 15C0 6.71573 6.71573 0 15 0H37V301H15C6.71573 301 0 294.284 0 286V15Z" fill="#007EC8"/>
<path d="M104.407 104.898V144H94.981V104.898H104.407ZM127.745 104.898L112.598 124.718L103.736 134.413L102.017 125.765L107.684 117.171L116.116 104.898H127.745ZM116.6 144L106.502 126.383L113.833 120.985L127.745 144H116.6ZM144.825 136.695V124.718C144.825 123.894 144.708 123.187 144.476 122.596C144.243 122.005 143.876 121.549 143.375 121.227C142.873 120.886 142.202 120.716 141.36 120.716C140.68 120.716 140.098 120.833 139.615 121.065C139.131 121.298 138.764 121.647 138.514 122.113C138.263 122.578 138.138 123.169 138.138 123.885H129.087C129.087 122.542 129.383 121.298 129.974 120.152C130.582 118.989 131.442 117.977 132.552 117.118C133.68 116.258 135.022 115.596 136.58 115.13C138.156 114.647 139.91 114.405 141.844 114.405C144.153 114.405 146.212 114.79 148.021 115.56C149.847 116.33 151.288 117.485 152.344 119.024C153.401 120.546 153.929 122.462 153.929 124.771V136.668C153.929 138.566 154.036 140.007 154.251 140.992C154.466 141.959 154.77 142.809 155.164 143.543V144H146.087C145.657 143.105 145.335 142.013 145.12 140.724C144.923 139.417 144.825 138.074 144.825 136.695ZM145.926 126.249L145.979 131.083H141.978C141.137 131.083 140.42 131.199 139.83 131.432C139.257 131.664 138.791 131.987 138.433 132.398C138.093 132.792 137.842 133.24 137.681 133.741C137.538 134.243 137.466 134.771 137.466 135.326C137.466 135.863 137.592 136.346 137.842 136.776C138.111 137.188 138.469 137.51 138.917 137.743C139.364 137.975 139.865 138.092 140.42 138.092C141.423 138.092 142.273 137.904 142.972 137.528C143.688 137.134 144.234 136.66 144.61 136.104C144.986 135.549 145.174 135.03 145.174 134.547L147.161 138.253C146.803 138.969 146.391 139.694 145.926 140.428C145.478 141.162 144.914 141.843 144.234 142.469C143.571 143.078 142.757 143.579 141.79 143.973C140.823 144.349 139.651 144.537 138.272 144.537C136.482 144.537 134.834 144.17 133.331 143.436C131.845 142.702 130.654 141.681 129.759 140.375C128.864 139.05 128.416 137.528 128.416 135.809C128.416 134.305 128.685 132.962 129.222 131.781C129.777 130.599 130.609 129.597 131.719 128.773C132.829 127.949 134.244 127.323 135.962 126.893C137.681 126.463 139.704 126.249 142.032 126.249H145.926ZM170.042 144H160.938V112.579C160.938 110.323 161.395 108.425 162.308 106.886C163.221 105.346 164.51 104.182 166.175 103.395C167.84 102.589 169.809 102.186 172.083 102.186C172.871 102.186 173.614 102.24 174.312 102.347C175.01 102.455 175.691 102.589 176.353 102.75L176.38 109.41C176.058 109.321 175.726 109.258 175.386 109.222C175.046 109.186 174.625 109.168 174.124 109.168C173.247 109.168 172.504 109.303 171.895 109.571C171.286 109.822 170.821 110.207 170.499 110.726C170.194 111.227 170.042 111.845 170.042 112.579V144ZM175.682 114.942V121.227H156.749V114.942H175.682ZM188.277 144H179.2V114.19C179.2 111.594 179.737 109.41 180.811 107.638C181.885 105.847 183.443 104.496 185.484 103.583C187.543 102.652 190.022 102.186 192.923 102.186C194.552 102.186 196.128 102.329 197.649 102.616C199.171 102.902 200.747 103.278 202.376 103.744L201.141 110.887C200.066 110.601 198.947 110.332 197.784 110.082C196.638 109.831 195.197 109.706 193.46 109.706C191.831 109.706 190.56 110.09 189.646 110.86C188.733 111.63 188.277 112.74 188.277 114.19V144ZM193.97 114.942V121.227H174.983V114.942H193.97ZM206.539 114.942V144H197.435V114.942H206.539ZM229.742 123.644V130.653H213.602V123.644H229.742ZM246.392 102.75V144H237.315V102.75H246.392ZM252.059 102.75H261.109V136.856L260.169 144H252.059V102.75ZM278.941 129.149V129.713C278.941 131.915 278.717 133.92 278.27 135.729C277.822 137.537 277.133 139.103 276.202 140.428C275.271 141.735 274.098 142.747 272.684 143.463C271.269 144.179 269.595 144.537 267.662 144.537C265.907 144.537 264.403 144.161 263.15 143.409C261.897 142.639 260.849 141.583 260.008 140.24C259.166 138.88 258.486 137.313 257.967 135.541C257.448 133.75 257.036 131.834 256.731 129.793V129.122C257.036 127.099 257.448 125.201 257.967 123.429C258.486 121.638 259.166 120.072 260.008 118.729C260.849 117.368 261.888 116.312 263.123 115.56C264.376 114.79 265.871 114.405 267.608 114.405C269.559 114.405 271.242 114.772 272.657 115.506C274.089 116.24 275.271 117.27 276.202 118.595C277.133 119.92 277.822 121.477 278.27 123.268C278.717 125.058 278.941 127.018 278.941 129.149ZM269.891 129.713V129.149C269.891 128.093 269.828 127.099 269.703 126.168C269.577 125.237 269.354 124.413 269.031 123.697C268.709 122.981 268.252 122.417 267.662 122.005C267.071 121.594 266.301 121.388 265.352 121.388C264.385 121.388 263.571 121.549 262.908 121.871C262.264 122.193 261.744 122.659 261.351 123.268C260.975 123.858 260.706 124.592 260.545 125.47C260.384 126.329 260.312 127.305 260.33 128.397V130.519C260.294 132.005 260.429 133.276 260.733 134.332C261.037 135.388 261.565 136.194 262.317 136.749C263.069 137.304 264.099 137.582 265.406 137.582C266.373 137.582 267.151 137.394 267.742 137.018C268.351 136.642 268.807 136.104 269.112 135.406C269.416 134.708 269.622 133.875 269.729 132.909C269.837 131.942 269.891 130.877 269.891 129.713Z" fill="black"/>
<path d="M96.563 55.1172H100.904L107.295 73.3862L113.687 55.1172H118.028L109.039 80H105.552L96.563 55.1172ZM94.2217 55.1172H98.5454L99.3315 72.9248V80H94.2217V55.1172ZM116.045 55.1172H120.386V80H115.259V72.9248L116.045 55.1172ZM123.787 70.9424V70.5835C123.787 69.2277 123.981 67.9801 124.368 66.8408C124.756 65.6901 125.319 64.6932 126.06 63.8501C126.801 63.007 127.712 62.3519 128.794 61.8848C129.877 61.4062 131.119 61.167 132.52 61.167C133.921 61.167 135.169 61.4062 136.263 61.8848C137.356 62.3519 138.274 63.007 139.014 63.8501C139.766 64.6932 140.336 65.6901 140.723 66.8408C141.111 67.9801 141.304 69.2277 141.304 70.5835V70.9424C141.304 72.2868 141.111 73.5343 140.723 74.6851C140.336 75.8244 139.766 76.8213 139.014 77.6758C138.274 78.5189 137.362 79.174 136.28 79.6411C135.197 80.1082 133.956 80.3418 132.554 80.3418C131.153 80.3418 129.905 80.1082 128.812 79.6411C127.729 79.174 126.812 78.5189 126.06 77.6758C125.319 76.8213 124.756 75.8244 124.368 74.6851C123.981 73.5343 123.787 72.2868 123.787 70.9424ZM128.709 70.5835V70.9424C128.709 71.7171 128.777 72.4406 128.914 73.1128C129.051 73.785 129.267 74.3774 129.563 74.8901C129.871 75.3914 130.27 75.7845 130.76 76.0693C131.25 76.3542 131.848 76.4966 132.554 76.4966C133.238 76.4966 133.825 76.3542 134.314 76.0693C134.804 75.7845 135.197 75.3914 135.494 74.8901C135.79 74.3774 136.006 73.785 136.143 73.1128C136.291 72.4406 136.365 71.7171 136.365 70.9424V70.5835C136.365 69.8315 136.291 69.1252 136.143 68.4644C136.006 67.7922 135.784 67.1997 135.477 66.687C135.18 66.1629 134.787 65.7528 134.297 65.4565C133.807 65.1603 133.215 65.0122 132.52 65.0122C131.825 65.0122 131.233 65.1603 130.743 65.4565C130.264 65.7528 129.871 66.1629 129.563 66.687C129.267 67.1997 129.051 67.7922 128.914 68.4644C128.777 69.1252 128.709 69.8315 128.709 70.5835ZM149.131 53.75V80H144.209V53.75H149.131ZM148.431 70.105H147.081C147.092 68.8175 147.263 67.6326 147.593 66.5503C147.924 65.4565 148.396 64.5109 149.012 63.7134C149.627 62.9045 150.362 62.2778 151.216 61.8335C152.082 61.3892 153.039 61.167 154.087 61.167C154.999 61.167 155.825 61.298 156.565 61.5601C157.317 61.8107 157.961 62.2209 158.497 62.7905C159.043 63.3488 159.465 64.0837 159.761 64.9951C160.057 65.9066 160.206 67.0117 160.206 68.3105V80H155.25V68.2764C155.25 67.4561 155.13 66.8123 154.891 66.3452C154.663 65.8667 154.327 65.5306 153.882 65.3369C153.449 65.1318 152.914 65.0293 152.276 65.0293C151.569 65.0293 150.966 65.1603 150.464 65.4224C149.974 65.6844 149.581 66.049 149.285 66.5161C148.989 66.9718 148.772 67.5073 148.636 68.1226C148.499 68.7378 148.431 69.3986 148.431 70.105ZM173.929 75.8301V67.5928C173.929 67.0003 173.832 66.4933 173.638 66.0718C173.444 65.6388 173.143 65.3027 172.732 65.0635C172.334 64.8242 171.815 64.7046 171.177 64.7046C170.63 64.7046 170.158 64.8014 169.759 64.9951C169.36 65.1774 169.052 65.4451 168.836 65.7983C168.619 66.1401 168.511 66.5446 168.511 67.0117H163.589C163.589 66.2256 163.772 65.4793 164.136 64.7729C164.501 64.0666 165.031 63.4456 165.726 62.9102C166.421 62.3633 167.247 61.936 168.204 61.6284C169.172 61.3208 170.254 61.167 171.451 61.167C172.886 61.167 174.162 61.4062 175.279 61.8848C176.395 62.3633 177.273 63.0811 177.911 64.0381C178.56 64.9951 178.885 66.1914 178.885 67.627V75.5396C178.885 76.5535 178.947 77.3853 179.073 78.0347C179.198 78.6727 179.38 79.231 179.62 79.7095V80H174.646C174.407 79.4987 174.225 78.8721 174.1 78.1201C173.986 77.3568 173.929 76.5934 173.929 75.8301ZM174.578 68.7378L174.612 71.5234H171.861C171.211 71.5234 170.647 71.5975 170.169 71.7456C169.69 71.8937 169.297 72.1045 168.99 72.3779C168.682 72.64 168.454 72.9476 168.306 73.3008C168.169 73.654 168.101 74.0413 168.101 74.4629C168.101 74.8844 168.198 75.2661 168.392 75.6079C168.585 75.9383 168.864 76.2004 169.229 76.394C169.594 76.5763 170.021 76.6675 170.511 76.6675C171.251 76.6675 171.895 76.5194 172.442 76.2231C172.989 75.9269 173.41 75.5623 173.707 75.1294C174.014 74.6965 174.174 74.2863 174.185 73.8989L175.484 75.9839C175.302 76.451 175.051 76.9352 174.732 77.4365C174.424 77.9378 174.031 78.4106 173.553 78.855C173.074 79.2879 172.499 79.6468 171.827 79.9316C171.154 80.2051 170.357 80.3418 169.434 80.3418C168.261 80.3418 167.195 80.1082 166.238 79.6411C165.293 79.1626 164.541 78.5075 163.982 77.6758C163.436 76.8327 163.162 75.8757 163.162 74.8047C163.162 73.8363 163.344 72.9761 163.709 72.2241C164.074 71.4722 164.609 70.8398 165.315 70.3271C166.033 69.8031 166.928 69.41 167.999 69.1479C169.069 68.8745 170.311 68.7378 171.724 68.7378H174.578ZM187.601 65.3369V80H182.662V61.5088H187.293L187.601 65.3369ZM186.917 70.105H185.55C185.55 68.8175 185.704 67.6326 186.011 66.5503C186.33 65.4565 186.792 64.5109 187.396 63.7134C188.011 62.9045 188.768 62.2778 189.668 61.8335C190.569 61.3892 191.611 61.167 192.796 61.167C193.616 61.167 194.368 61.2923 195.052 61.543C195.735 61.7822 196.322 62.1639 196.812 62.688C197.313 63.2007 197.701 63.8729 197.974 64.7046C198.248 65.5249 198.384 66.5104 198.384 67.6611V80H193.462V68.208C193.462 67.3649 193.348 66.7155 193.121 66.2598C192.893 65.804 192.568 65.485 192.146 65.3027C191.736 65.1204 191.241 65.0293 190.66 65.0293C190.022 65.0293 189.463 65.1603 188.985 65.4224C188.518 65.6844 188.13 66.049 187.823 66.5161C187.515 66.9718 187.287 67.5073 187.139 68.1226C186.991 68.7378 186.917 69.3986 186.917 70.105ZM197.923 69.541L196.163 69.7632C196.163 68.5555 196.311 67.4333 196.607 66.3965C196.915 65.3597 197.365 64.4482 197.957 63.6621C198.561 62.876 199.307 62.2664 200.196 61.8335C201.084 61.3892 202.11 61.167 203.272 61.167C204.161 61.167 204.97 61.298 205.699 61.5601C206.428 61.8107 207.049 62.2152 207.562 62.7734C208.086 63.3203 208.484 64.0381 208.758 64.9268C209.043 65.8154 209.185 66.9035 209.185 68.1909V80H204.246V68.1909C204.246 67.3364 204.132 66.687 203.904 66.2427C203.688 65.7869 203.369 65.4736 202.947 65.3027C202.537 65.1204 202.047 65.0293 201.478 65.0293C200.885 65.0293 200.367 65.1489 199.922 65.3882C199.478 65.616 199.108 65.9351 198.812 66.3452C198.515 66.7554 198.293 67.2339 198.145 67.7808C197.997 68.3162 197.923 68.903 197.923 69.541ZM217.918 65.3369V80H212.979V61.5088H217.61L217.918 65.3369ZM217.234 70.105H215.867C215.867 68.8175 216.021 67.6326 216.329 66.5503C216.648 65.4565 217.109 64.5109 217.713 63.7134C218.328 62.9045 219.086 62.2778 219.986 61.8335C220.886 61.3892 221.928 61.167 223.113 61.167C223.934 61.167 224.686 61.2923 225.369 61.543C226.053 61.7822 226.639 62.1639 227.129 62.688C227.631 63.2007 228.018 63.8729 228.292 64.7046C228.565 65.5249 228.702 66.5104 228.702 67.6611V80H223.78V68.208C223.78 67.3649 223.666 66.7155 223.438 66.2598C223.21 65.804 222.885 65.485 222.464 65.3027C222.054 65.1204 221.558 65.0293 220.977 65.0293C220.339 65.0293 219.781 65.1603 219.302 65.4224C218.835 65.6844 218.448 66.049 218.14 66.5161C217.833 66.9718 217.605 67.5073 217.457 68.1226C217.308 68.7378 217.234 69.3986 217.234 70.105ZM228.24 69.541L226.48 69.7632C226.48 68.5555 226.628 67.4333 226.924 66.3965C227.232 65.3597 227.682 64.4482 228.274 63.6621C228.878 62.876 229.625 62.2664 230.513 61.8335C231.402 61.3892 232.427 61.167 233.589 61.167C234.478 61.167 235.287 61.298 236.016 61.5601C236.745 61.8107 237.366 62.2152 237.879 62.7734C238.403 63.3203 238.802 64.0381 239.075 64.9268C239.36 65.8154 239.502 66.9035 239.502 68.1909V80H234.563V68.1909C234.563 67.3364 234.45 66.687 234.222 66.2427C234.005 65.7869 233.686 65.4736 233.265 65.3027C232.854 65.1204 232.365 65.0293 231.795 65.0293C231.202 65.0293 230.684 65.1489 230.24 65.3882C229.795 65.616 229.425 65.9351 229.129 66.3452C228.833 66.7554 228.611 67.2339 228.462 67.7808C228.314 68.3162 228.24 68.903 228.24 69.541ZM253.294 75.8301V67.5928C253.294 67.0003 253.197 66.4933 253.003 66.0718C252.81 65.6388 252.508 65.3027 252.098 65.0635C251.699 64.8242 251.181 64.7046 250.542 64.7046C249.996 64.7046 249.523 64.8014 249.124 64.9951C248.725 65.1774 248.418 65.4451 248.201 65.7983C247.985 66.1401 247.876 66.5446 247.876 67.0117H242.955C242.955 66.2256 243.137 65.4793 243.501 64.7729C243.866 64.0666 244.396 63.4456 245.091 62.9102C245.786 62.3633 246.612 61.936 247.569 61.6284C248.537 61.3208 249.62 61.167 250.816 61.167C252.251 61.167 253.528 61.4062 254.644 61.8848C255.761 62.3633 256.638 63.0811 257.276 64.0381C257.925 64.9951 258.25 66.1914 258.25 67.627V75.5396C258.25 76.5535 258.313 77.3853 258.438 78.0347C258.563 78.6727 258.746 79.231 258.985 79.7095V80H254.012C253.772 79.4987 253.59 78.8721 253.465 78.1201C253.351 77.3568 253.294 76.5934 253.294 75.8301ZM253.943 68.7378L253.978 71.5234H251.226C250.577 71.5234 250.013 71.5975 249.534 71.7456C249.056 71.8937 248.663 72.1045 248.355 72.3779C248.047 72.64 247.819 72.9476 247.671 73.3008C247.535 73.654 247.466 74.0413 247.466 74.4629C247.466 74.8844 247.563 75.2661 247.757 75.6079C247.951 75.9383 248.23 76.2004 248.594 76.394C248.959 76.5763 249.386 76.6675 249.876 76.6675C250.617 76.6675 251.26 76.5194 251.807 76.2231C252.354 75.9269 252.776 75.5623 253.072 75.1294C253.379 74.6965 253.539 74.2863 253.55 73.8989L254.849 75.9839C254.667 76.451 254.416 76.9352 254.097 77.4365C253.79 77.9378 253.396 78.4106 252.918 78.855C252.439 79.2879 251.864 79.6468 251.192 79.9316C250.52 80.2051 249.722 80.3418 248.799 80.3418C247.626 80.3418 246.561 80.1082 245.604 79.6411C244.658 79.1626 243.906 78.5075 243.348 77.6758C242.801 76.8327 242.527 75.8757 242.527 74.8047C242.527 73.8363 242.71 72.9761 243.074 72.2241C243.439 71.4722 243.974 70.8398 244.681 70.3271C245.398 69.8031 246.293 69.41 247.364 69.1479C248.435 68.8745 249.677 68.7378 251.089 68.7378H253.943ZM272.964 75.9668V53.75H277.92V80H273.46L272.964 75.9668ZM261.275 70.9766V70.6177C261.275 69.2049 261.434 67.9232 261.753 66.7725C262.072 65.6104 262.54 64.6134 263.155 63.7817C263.77 62.95 264.528 62.3063 265.428 61.8506C266.328 61.3949 267.353 61.167 268.504 61.167C269.586 61.167 270.532 61.3949 271.341 61.8506C272.161 62.3063 272.856 62.9557 273.426 63.7988C274.007 64.6305 274.474 65.616 274.827 66.7554C275.18 67.8833 275.437 69.1195 275.596 70.4639V71.25C275.437 72.5374 275.18 73.7337 274.827 74.8389C274.474 75.944 274.007 76.9124 273.426 77.7441C272.856 78.5645 272.161 79.2025 271.341 79.6582C270.521 80.1139 269.563 80.3418 268.47 80.3418C267.319 80.3418 266.294 80.1082 265.394 79.6411C264.505 79.174 263.753 78.5189 263.138 77.6758C262.534 76.8327 262.072 75.8415 261.753 74.7021C261.434 73.5628 261.275 72.321 261.275 70.9766ZM266.197 70.6177V70.9766C266.197 71.7399 266.254 72.452 266.368 73.1128C266.493 73.7736 266.692 74.3604 266.966 74.873C267.251 75.3743 267.615 75.7674 268.06 76.0522C268.515 76.3257 269.068 76.4624 269.717 76.4624C270.56 76.4624 271.255 76.2744 271.802 75.8984C272.349 75.5111 272.765 74.9813 273.05 74.3091C273.346 73.6369 273.517 72.8621 273.562 71.9849V69.7461C273.528 69.0283 273.426 68.3846 273.255 67.8149C273.095 67.2339 272.856 66.7383 272.537 66.3281C272.229 65.918 271.842 65.599 271.375 65.3711C270.919 65.1432 270.378 65.0293 269.751 65.0293C269.113 65.0293 268.567 65.1774 268.111 65.4736C267.655 65.7585 267.285 66.1515 267 66.6528C266.727 67.1541 266.521 67.7466 266.385 68.4302C266.259 69.1024 266.197 69.8315 266.197 70.6177ZM293.13 55.1172H297.471L303.863 73.3862L310.254 55.1172H314.595L305.606 80H302.12L293.13 55.1172ZM290.789 55.1172H295.113L295.899 72.9248V80H290.789V55.1172ZM312.613 55.1172H316.954V80H311.827V72.9248L312.613 55.1172ZM320.354 70.9424V70.5835C320.354 69.2277 320.548 67.9801 320.936 66.8408C321.323 65.6901 321.887 64.6932 322.627 63.8501C323.368 63.007 324.279 62.3519 325.362 61.8848C326.444 61.4062 327.686 61.167 329.087 61.167C330.489 61.167 331.736 61.4062 332.83 61.8848C333.924 62.3519 334.841 63.007 335.582 63.8501C336.333 64.6932 336.903 65.6901 337.291 66.8408C337.678 67.9801 337.872 69.2277 337.872 70.5835V70.9424C337.872 72.2868 337.678 73.5343 337.291 74.6851C336.903 75.8244 336.333 76.8213 335.582 77.6758C334.841 78.5189 333.93 79.174 332.847 79.6411C331.765 80.1082 330.523 80.3418 329.122 80.3418C327.72 80.3418 326.473 80.1082 325.379 79.6411C324.297 79.174 323.379 78.5189 322.627 77.6758C321.887 76.8213 321.323 75.8244 320.936 74.6851C320.548 73.5343 320.354 72.2868 320.354 70.9424ZM325.276 70.5835V70.9424C325.276 71.7171 325.345 72.4406 325.481 73.1128C325.618 73.785 325.835 74.3774 326.131 74.8901C326.438 75.3914 326.837 75.7845 327.327 76.0693C327.817 76.3542 328.415 76.4966 329.122 76.4966C329.805 76.4966 330.392 76.3542 330.882 76.0693C331.372 75.7845 331.765 75.3914 332.061 74.8901C332.357 74.3774 332.574 73.785 332.71 73.1128C332.859 72.4406 332.933 71.7171 332.933 70.9424V70.5835C332.933 69.8315 332.859 69.1252 332.71 68.4644C332.574 67.7922 332.352 67.1997 332.044 66.687C331.748 66.1629 331.355 65.7528 330.865 65.4565C330.375 65.1603 329.782 65.0122 329.087 65.0122C328.392 65.0122 327.8 65.1603 327.31 65.4565C326.832 65.7528 326.438 66.1629 326.131 66.687C325.835 67.1997 325.618 67.7922 325.481 68.4644C325.345 69.1252 325.276 69.8315 325.276 70.5835ZM351.834 75.5737V61.5088H356.756V80H352.125L351.834 75.5737ZM352.381 71.7798L353.833 71.7456C353.833 72.9761 353.691 74.1211 353.406 75.1807C353.121 76.2288 352.694 77.1403 352.125 77.915C351.555 78.6784 350.837 79.2765 349.971 79.7095C349.105 80.131 348.086 80.3418 346.912 80.3418C346.012 80.3418 345.18 80.2165 344.417 79.9658C343.665 79.7038 343.016 79.2993 342.469 78.7524C341.933 78.1942 341.512 77.4821 341.204 76.6162C340.908 75.7389 340.76 74.6851 340.76 73.4546V61.5088H345.682V73.4888C345.682 74.0356 345.744 74.4971 345.87 74.873C346.006 75.249 346.194 75.5566 346.434 75.7959C346.673 76.0352 346.952 76.2061 347.271 76.3086C347.601 76.4111 347.966 76.4624 348.365 76.4624C349.379 76.4624 350.176 76.2573 350.757 75.8472C351.35 75.437 351.766 74.8787 352.005 74.1724C352.256 73.4546 352.381 72.6571 352.381 71.7798ZM370.513 74.8901C370.513 74.5369 370.411 74.2179 370.206 73.9331C370 73.6483 369.619 73.3862 369.061 73.147C368.514 72.8963 367.722 72.6685 366.685 72.4634C365.751 72.2583 364.879 72.002 364.07 71.6943C363.273 71.3753 362.578 70.9937 361.985 70.5493C361.404 70.105 360.949 69.5809 360.618 68.9771C360.288 68.3618 360.123 67.6611 360.123 66.875C360.123 66.1003 360.288 65.3711 360.618 64.6875C360.96 64.0039 361.444 63.4001 362.071 62.876C362.709 62.3405 363.484 61.9246 364.395 61.6284C365.318 61.3208 366.355 61.167 367.505 61.167C369.112 61.167 370.49 61.4233 371.641 61.936C372.803 62.4487 373.692 63.1551 374.307 64.0552C374.934 64.9438 375.247 65.9578 375.247 67.0972H370.325C370.325 66.6187 370.223 66.1914 370.018 65.8154C369.824 65.4281 369.516 65.1261 369.095 64.9097C368.685 64.6818 368.149 64.5679 367.488 64.5679C366.941 64.5679 366.469 64.6647 366.07 64.8584C365.671 65.0407 365.363 65.2913 365.147 65.6104C364.942 65.918 364.839 66.2598 364.839 66.6357C364.839 66.9206 364.896 67.1769 365.01 67.4048C365.136 67.6213 365.335 67.8206 365.608 68.0029C365.882 68.1852 366.235 68.3561 366.668 68.5156C367.112 68.6637 367.659 68.8005 368.309 68.9258C369.642 69.1992 370.832 69.5581 371.88 70.0024C372.929 70.4354 373.76 71.0278 374.375 71.7798C374.991 72.5203 375.298 73.4945 375.298 74.7021C375.298 75.5225 375.116 76.2744 374.751 76.958C374.387 77.6416 373.863 78.2397 373.179 78.7524C372.496 79.2537 371.675 79.6468 370.718 79.9316C369.773 80.2051 368.707 80.3418 367.522 80.3418C365.802 80.3418 364.344 80.0342 363.147 79.4189C361.963 78.8037 361.062 78.0233 360.447 77.0776C359.843 76.1206 359.542 75.1408 359.542 74.1382H364.207C364.23 74.8104 364.401 75.3516 364.72 75.7617C365.05 76.1719 365.466 76.4681 365.967 76.6504C366.48 76.8327 367.033 76.9238 367.625 76.9238C368.263 76.9238 368.793 76.8384 369.214 76.6675C369.636 76.4852 369.955 76.2459 370.171 75.9497C370.399 75.6421 370.513 75.2889 370.513 74.8901ZM388.492 74.8901C388.492 74.5369 388.389 74.2179 388.184 73.9331C387.979 73.6483 387.597 73.3862 387.039 73.147C386.492 72.8963 385.7 72.6685 384.664 72.4634C383.729 72.2583 382.858 72.002 382.049 71.6943C381.251 71.3753 380.556 70.9937 379.964 70.5493C379.383 70.105 378.927 69.5809 378.597 68.9771C378.266 68.3618 378.101 67.6611 378.101 66.875C378.101 66.1003 378.266 65.3711 378.597 64.6875C378.938 64.0039 379.423 63.4001 380.049 62.876C380.687 62.3405 381.462 61.9246 382.374 61.6284C383.296 61.3208 384.333 61.167 385.484 61.167C387.09 61.167 388.469 61.4233 389.62 61.936C390.782 62.4487 391.67 63.1551 392.286 64.0552C392.912 64.9438 393.226 65.9578 393.226 67.0972H388.304C388.304 66.6187 388.201 66.1914 387.996 65.8154C387.802 65.4281 387.495 65.1261 387.073 64.9097C386.663 64.6818 386.128 64.5679 385.467 64.5679C384.92 64.5679 384.447 64.6647 384.048 64.8584C383.65 65.0407 383.342 65.2913 383.125 65.6104C382.92 65.918 382.818 66.2598 382.818 66.6357C382.818 66.9206 382.875 67.1769 382.989 67.4048C383.114 67.6213 383.313 67.8206 383.587 68.0029C383.86 68.1852 384.214 68.3561 384.646 68.5156C385.091 68.6637 385.638 68.8005 386.287 68.9258C387.62 69.1992 388.811 69.5581 389.859 70.0024C390.907 70.4354 391.739 71.0278 392.354 71.7798C392.969 72.5203 393.277 73.4945 393.277 74.7021C393.277 75.5225 393.095 76.2744 392.73 76.958C392.365 77.6416 391.841 78.2397 391.158 78.7524C390.474 79.2537 389.654 79.6468 388.697 79.9316C387.751 80.2051 386.686 80.3418 385.501 80.3418C383.781 80.3418 382.322 80.0342 381.126 79.4189C379.941 78.8037 379.041 78.0233 378.426 77.0776C377.822 76.1206 377.52 75.1408 377.52 74.1382H382.186C382.208 74.8104 382.379 75.3516 382.698 75.7617C383.029 76.1719 383.444 76.4681 383.946 76.6504C384.458 76.8327 385.011 76.9238 385.604 76.9238C386.242 76.9238 386.771 76.8384 387.193 76.6675C387.614 76.4852 387.933 76.2459 388.15 75.9497C388.378 75.6421 388.492 75.2889 388.492 74.8901ZM406.453 75.8301V67.5928C406.453 67.0003 406.356 66.4933 406.163 66.0718C405.969 65.6388 405.667 65.3027 405.257 65.0635C404.858 64.8242 404.34 64.7046 403.702 64.7046C403.155 64.7046 402.682 64.8014 402.283 64.9951C401.884 65.1774 401.577 65.4451 401.36 65.7983C401.144 66.1401 401.036 66.5446 401.036 67.0117H396.114C396.114 66.2256 396.296 65.4793 396.661 64.7729C397.025 64.0666 397.555 63.4456 398.25 62.9102C398.945 62.3633 399.771 61.936 400.728 61.6284C401.696 61.3208 402.779 61.167 403.975 61.167C405.411 61.167 406.687 61.4062 407.803 61.8848C408.92 62.3633 409.797 63.0811 410.435 64.0381C411.084 64.9951 411.409 66.1914 411.409 67.627V75.5396C411.409 76.5535 411.472 77.3853 411.597 78.0347C411.722 78.6727 411.905 79.231 412.144 79.7095V80H407.171C406.932 79.4987 406.749 78.8721 406.624 78.1201C406.51 77.3568 406.453 76.5934 406.453 75.8301ZM407.103 68.7378L407.137 71.5234H404.385C403.736 71.5234 403.172 71.5975 402.693 71.7456C402.215 71.8937 401.822 72.1045 401.514 72.3779C401.207 72.64 400.979 72.9476 400.831 73.3008C400.694 73.654 400.625 74.0413 400.625 74.4629C400.625 74.8844 400.722 75.2661 400.916 75.6079C401.11 75.9383 401.389 76.2004 401.753 76.394C402.118 76.5763 402.545 76.6675 403.035 76.6675C403.776 76.6675 404.419 76.5194 404.966 76.2231C405.513 75.9269 405.935 75.5623 406.231 75.1294C406.539 74.6965 406.698 74.2863 406.709 73.8989L408.008 75.9839C407.826 76.451 407.575 76.9352 407.256 77.4365C406.949 77.9378 406.556 78.4106 406.077 78.855C405.599 79.2879 405.023 79.6468 404.351 79.9316C403.679 80.2051 402.881 80.3418 401.958 80.3418C400.785 80.3418 399.72 80.1082 398.763 79.6411C397.817 79.1626 397.065 78.5075 396.507 77.6758C395.96 76.8327 395.687 75.8757 395.687 74.8047C395.687 73.8363 395.869 72.9761 396.233 72.2241C396.598 71.4722 397.133 70.8398 397.84 70.3271C398.558 69.8031 399.452 69.41 400.523 69.1479C401.594 68.8745 402.836 68.7378 404.249 68.7378H407.103ZM420.398 53.75V80H415.459V53.75H420.398ZM429.661 53.75V80H424.722V53.75H429.661ZM438.924 61.5088V80H433.985V61.5088H438.924ZM433.677 56.6895C433.677 55.9717 433.928 55.3792 434.429 54.9121C434.931 54.445 435.603 54.2114 436.446 54.2114C437.278 54.2114 437.944 54.445 438.445 54.9121C438.958 55.3792 439.214 55.9717 439.214 56.6895C439.214 57.4072 438.958 57.9997 438.445 58.4668C437.944 58.9339 437.278 59.1675 436.446 59.1675C435.603 59.1675 434.931 58.9339 434.429 58.4668C433.928 57.9997 433.677 57.4072 433.677 56.6895Z" fill="#888888"/>
<rect x="92" y="181" width="1179" height="80" rx="13.3333" fill="#CCCCCC"/>
<rect x="107" y="196.333" width="208" height="49.3333" rx="4.66667" fill="#888888" stroke="#888888" stroke-width="4"/>
<path d="M171.823 213.167H177.792C178.958 213.167 179.972 213.34 180.833 213.688C181.694 214.035 182.358 214.549 182.823 215.229C183.295 215.91 183.531 216.75 183.531 217.75C183.531 218.618 183.396 219.344 183.125 219.927C182.854 220.51 182.476 220.993 181.99 221.375C181.51 221.75 180.951 222.059 180.312 222.302L179.115 222.979H174.104L174.083 220.156H177.792C178.257 220.156 178.642 220.073 178.948 219.906C179.253 219.74 179.483 219.503 179.635 219.198C179.795 218.885 179.875 218.514 179.875 218.083C179.875 217.646 179.795 217.271 179.635 216.958C179.476 216.646 179.24 216.406 178.927 216.24C178.622 216.073 178.243 215.99 177.792 215.99H175.479V228.333H171.823V213.167ZM180.125 228.333L176.771 221.625L180.646 221.604L184.042 228.177V228.333H180.125ZM191.031 228.542C190.115 228.542 189.295 228.399 188.573 228.115C187.851 227.823 187.24 227.424 186.74 226.917C186.247 226.41 185.868 225.826 185.604 225.167C185.347 224.507 185.219 223.809 185.219 223.073V222.677C185.219 221.851 185.333 221.087 185.562 220.385C185.792 219.677 186.132 219.059 186.583 218.531C187.035 218.003 187.601 217.594 188.281 217.302C188.962 217.003 189.753 216.854 190.656 216.854C191.455 216.854 192.17 216.983 192.802 217.24C193.434 217.497 193.969 217.865 194.406 218.344C194.851 218.823 195.187 219.403 195.417 220.083C195.653 220.764 195.771 221.528 195.771 222.375V223.802H186.562V221.604H192.344V221.333C192.351 220.958 192.285 220.639 192.146 220.375C192.014 220.111 191.819 219.91 191.562 219.771C191.306 219.632 190.993 219.563 190.625 219.563C190.243 219.563 189.927 219.646 189.677 219.813C189.434 219.979 189.243 220.208 189.104 220.5C188.972 220.785 188.878 221.115 188.823 221.49C188.767 221.865 188.74 222.26 188.74 222.677V223.073C188.74 223.49 188.795 223.868 188.906 224.208C189.024 224.549 189.191 224.84 189.406 225.083C189.628 225.319 189.892 225.503 190.198 225.635C190.51 225.767 190.865 225.833 191.26 225.833C191.74 225.833 192.212 225.743 192.677 225.563C193.142 225.382 193.542 225.083 193.875 224.667L195.469 226.563C195.24 226.889 194.913 227.205 194.49 227.51C194.073 227.816 193.573 228.066 192.99 228.26C192.406 228.448 191.753 228.542 191.031 228.542ZM203.052 225.5V220.854C203.052 220.535 203.007 220.26 202.917 220.031C202.826 219.802 202.684 219.625 202.49 219.5C202.295 219.368 202.035 219.302 201.708 219.302C201.444 219.302 201.219 219.347 201.031 219.438C200.844 219.528 200.701 219.663 200.604 219.844C200.507 220.024 200.458 220.253 200.458 220.531H196.948C196.948 220.01 197.062 219.528 197.292 219.083C197.528 218.632 197.861 218.24 198.292 217.906C198.729 217.573 199.25 217.316 199.854 217.135C200.465 216.948 201.146 216.854 201.896 216.854C202.792 216.854 203.59 217.003 204.292 217.302C205 217.601 205.559 218.049 205.969 218.646C206.378 219.236 206.583 219.979 206.583 220.875V225.49C206.583 226.226 206.625 226.785 206.708 227.167C206.792 227.542 206.91 227.872 207.062 228.156V228.333H203.542C203.375 227.986 203.25 227.563 203.167 227.063C203.09 226.556 203.052 226.035 203.052 225.5ZM203.479 221.448L203.5 223.323H201.948C201.622 223.323 201.344 223.368 201.115 223.458C200.892 223.549 200.712 223.674 200.573 223.833C200.441 223.986 200.344 224.16 200.281 224.354C200.226 224.549 200.198 224.753 200.198 224.969C200.198 225.177 200.247 225.365 200.344 225.531C200.448 225.691 200.587 225.816 200.76 225.906C200.934 225.997 201.128 226.042 201.344 226.042C201.733 226.042 202.062 225.969 202.333 225.823C202.611 225.67 202.823 225.486 202.969 225.271C203.115 225.056 203.187 224.854 203.187 224.667L203.958 226.104C203.819 226.382 203.66 226.663 203.479 226.948C203.306 227.233 203.087 227.497 202.823 227.74C202.566 227.976 202.25 228.17 201.875 228.323C201.5 228.469 201.045 228.542 200.51 228.542C199.816 228.542 199.177 228.399 198.594 228.115C198.017 227.83 197.556 227.434 197.208 226.927C196.861 226.413 196.687 225.823 196.687 225.156C196.687 224.573 196.792 224.052 197 223.594C197.215 223.135 197.538 222.747 197.969 222.427C198.399 222.108 198.948 221.865 199.615 221.698C200.281 221.531 201.066 221.448 201.969 221.448H203.479ZM213.292 225.833C213.618 225.833 213.896 225.774 214.125 225.656C214.361 225.531 214.538 225.358 214.656 225.135C214.781 224.906 214.84 224.632 214.833 224.313H218.135C218.142 225.16 217.934 225.903 217.51 226.542C217.094 227.174 216.524 227.667 215.802 228.021C215.087 228.368 214.278 228.542 213.375 228.542C212.493 228.542 211.722 228.399 211.062 228.115C210.403 227.823 209.851 227.42 209.406 226.906C208.969 226.385 208.639 225.778 208.417 225.083C208.201 224.389 208.094 223.635 208.094 222.823V222.583C208.094 221.771 208.201 221.017 208.417 220.323C208.639 219.622 208.969 219.014 209.406 218.5C209.851 217.979 210.399 217.576 211.052 217.292C211.712 217 212.479 216.854 213.354 216.854C214.292 216.854 215.118 217.031 215.833 217.385C216.556 217.74 217.122 218.253 217.531 218.927C217.941 219.601 218.142 220.417 218.135 221.375H214.833C214.84 221.035 214.788 220.729 214.677 220.458C214.566 220.188 214.392 219.972 214.156 219.813C213.927 219.646 213.632 219.563 213.271 219.563C212.91 219.563 212.618 219.642 212.396 219.802C212.174 219.962 212.003 220.184 211.885 220.469C211.774 220.747 211.698 221.066 211.656 221.427C211.622 221.788 211.604 222.174 211.604 222.583V222.823C211.604 223.24 211.622 223.632 211.656 224C211.698 224.361 211.778 224.681 211.896 224.958C212.014 225.229 212.184 225.444 212.406 225.604C212.628 225.757 212.924 225.833 213.292 225.833ZM225.573 217.063V219.5H218.781V217.063H225.573ZM220.208 214.26H223.719V224.656C223.719 224.955 223.753 225.188 223.823 225.354C223.892 225.514 224.01 225.628 224.177 225.698C224.351 225.76 224.58 225.792 224.865 225.792C225.066 225.792 225.233 225.788 225.365 225.781C225.497 225.767 225.622 225.75 225.74 225.729V228.24C225.441 228.337 225.128 228.41 224.802 228.458C224.476 228.514 224.128 228.542 223.76 228.542C223.01 228.542 222.368 228.424 221.833 228.188C221.306 227.951 220.903 227.58 220.625 227.073C220.347 226.566 220.208 225.906 220.208 225.094V214.26ZM233.167 223.573V213.167H236.812V223.573C236.812 224.587 236.58 225.465 236.115 226.208C235.656 226.951 235.031 227.528 234.24 227.938C233.455 228.34 232.573 228.542 231.594 228.542C230.58 228.542 229.677 228.372 228.885 228.031C228.101 227.691 227.483 227.167 227.031 226.458C226.587 225.75 226.365 224.847 226.365 223.75H230.031C230.031 224.264 230.09 224.667 230.208 224.958C230.326 225.243 230.5 225.444 230.729 225.563C230.965 225.674 231.253 225.729 231.594 225.729C231.927 225.729 232.208 225.646 232.437 225.479C232.674 225.306 232.854 225.059 232.979 224.74C233.104 224.413 233.167 224.024 233.167 223.573ZM246.948 224.302C246.948 224.066 246.913 223.854 246.844 223.667C246.774 223.472 246.646 223.292 246.458 223.125C246.271 222.958 246 222.792 245.646 222.625C245.299 222.451 244.84 222.271 244.271 222.083C243.604 221.861 242.962 221.611 242.344 221.333C241.726 221.049 241.174 220.719 240.687 220.344C240.201 219.962 239.816 219.517 239.531 219.01C239.247 218.497 239.104 217.899 239.104 217.219C239.104 216.566 239.25 215.979 239.542 215.458C239.833 214.931 240.24 214.483 240.76 214.115C241.288 213.74 241.906 213.455 242.615 213.26C243.323 213.059 244.097 212.958 244.937 212.958C246.049 212.958 247.028 213.153 247.875 213.542C248.729 213.924 249.396 214.469 249.875 215.177C250.361 215.878 250.604 216.708 250.604 217.667H246.969C246.969 217.285 246.889 216.948 246.729 216.656C246.576 216.365 246.344 216.135 246.031 215.969C245.719 215.802 245.326 215.719 244.854 215.719C244.396 215.719 244.01 215.788 243.698 215.927C243.385 216.066 243.149 216.253 242.99 216.49C242.83 216.719 242.75 216.972 242.75 217.25C242.75 217.479 242.812 217.688 242.937 217.875C243.069 218.056 243.253 218.226 243.49 218.385C243.733 218.545 244.024 218.698 244.365 218.844C244.712 218.99 245.101 219.132 245.531 219.271C246.337 219.528 247.052 219.816 247.677 220.135C248.309 220.448 248.84 220.806 249.271 221.208C249.708 221.604 250.038 222.056 250.26 222.563C250.49 223.069 250.604 223.642 250.604 224.281C250.604 224.962 250.472 225.566 250.208 226.094C249.944 226.622 249.566 227.069 249.073 227.438C248.58 227.799 247.99 228.073 247.302 228.26C246.615 228.448 245.847 228.542 245 228.542C244.222 228.542 243.455 228.444 242.698 228.25C241.948 228.049 241.267 227.743 240.656 227.333C240.045 226.917 239.556 226.385 239.187 225.74C238.826 225.087 238.646 224.313 238.646 223.417H242.312C242.312 223.861 242.372 224.236 242.49 224.542C242.608 224.847 242.781 225.094 243.01 225.281C243.24 225.462 243.521 225.594 243.854 225.677C244.187 225.753 244.569 225.792 245 225.792C245.465 225.792 245.84 225.726 246.125 225.594C246.41 225.455 246.618 225.274 246.75 225.052C246.882 224.823 246.948 224.573 246.948 224.302Z" fill="white"/>
<rect x="339" y="196.333" width="208" height="49.3333" rx="4.66667" fill="#888888" stroke="#888888" stroke-width="4"/>
<path d="M418.844 213.167V228.333H415.198L409.833 218.896V228.333H406.177V213.167H409.833L415.198 222.604V213.167H418.844ZM420.552 222.813V222.594C420.552 221.767 420.67 221.007 420.906 220.313C421.142 219.611 421.49 219.003 421.948 218.49C422.406 217.976 422.972 217.576 423.646 217.292C424.319 217 425.097 216.854 425.979 216.854C426.868 216.854 427.649 217 428.323 217.292C429.003 217.576 429.573 217.976 430.031 218.49C430.49 219.003 430.837 219.611 431.073 220.313C431.309 221.007 431.427 221.767 431.427 222.594V222.813C431.427 223.632 431.309 224.392 431.073 225.094C430.837 225.788 430.49 226.396 430.031 226.917C429.573 227.431 429.007 227.83 428.333 228.115C427.66 228.399 426.882 228.542 426 228.542C425.118 228.542 424.337 228.399 423.656 228.115C422.976 227.83 422.406 227.431 421.948 226.917C421.49 226.396 421.142 225.788 420.906 225.094C420.67 224.392 420.552 223.632 420.552 222.813ZM424.062 222.594V222.813C424.062 223.236 424.094 223.632 424.156 224C424.219 224.368 424.323 224.691 424.469 224.969C424.615 225.24 424.812 225.451 425.062 225.604C425.312 225.757 425.625 225.833 426 225.833C426.368 225.833 426.674 225.757 426.917 225.604C427.167 225.451 427.365 225.24 427.51 224.969C427.656 224.691 427.76 224.368 427.823 224C427.885 223.632 427.917 223.236 427.917 222.813V222.594C427.917 222.184 427.885 221.799 427.823 221.438C427.76 221.069 427.656 220.747 427.51 220.469C427.365 220.184 427.167 219.962 426.917 219.802C426.667 219.642 426.354 219.563 425.979 219.563C425.611 219.563 425.302 219.642 425.052 219.802C424.809 219.962 424.615 220.184 424.469 220.469C424.323 220.747 424.219 221.069 424.156 221.438C424.094 221.799 424.062 222.184 424.062 222.594ZM439.469 225.75V212.333H443V228.333H439.833L439.469 225.75ZM432.552 222.833V222.615C432.552 221.76 432.646 220.983 432.833 220.281C433.021 219.573 433.299 218.965 433.667 218.458C434.035 217.944 434.493 217.549 435.042 217.271C435.59 216.993 436.222 216.854 436.938 216.854C437.576 216.854 438.135 217.003 438.615 217.302C439.094 217.594 439.503 218.003 439.844 218.531C440.184 219.059 440.462 219.677 440.677 220.385C440.892 221.087 441.056 221.844 441.167 222.656V222.917C441.056 223.681 440.892 224.403 440.677 225.083C440.462 225.757 440.184 226.354 439.844 226.875C439.503 227.396 439.09 227.806 438.604 228.104C438.125 228.396 437.563 228.542 436.917 228.542C436.201 228.542 435.569 228.399 435.021 228.115C434.479 227.83 434.024 227.431 433.656 226.917C433.295 226.403 433.021 225.799 432.833 225.104C432.646 224.41 432.552 223.653 432.552 222.833ZM436.063 222.615V222.833C436.063 223.257 436.09 223.649 436.146 224.01C436.201 224.372 436.295 224.691 436.427 224.969C436.566 225.24 436.747 225.451 436.969 225.604C437.198 225.757 437.479 225.833 437.813 225.833C438.264 225.833 438.635 225.726 438.927 225.51C439.226 225.295 439.444 224.99 439.583 224.594C439.729 224.198 439.792 223.733 439.771 223.198V222.375C439.785 221.917 439.753 221.514 439.677 221.167C439.601 220.813 439.479 220.517 439.313 220.281C439.153 220.045 438.948 219.868 438.698 219.75C438.455 219.625 438.167 219.563 437.833 219.563C437.507 219.563 437.229 219.639 437 219.792C436.778 219.944 436.597 220.16 436.458 220.438C436.319 220.708 436.219 221.031 436.156 221.406C436.094 221.774 436.063 222.177 436.063 222.615ZM450.448 228.542C449.531 228.542 448.712 228.399 447.99 228.115C447.267 227.823 446.656 227.424 446.156 226.917C445.663 226.41 445.285 225.826 445.021 225.167C444.764 224.507 444.635 223.809 444.635 223.073V222.677C444.635 221.851 444.75 221.087 444.979 220.385C445.208 219.677 445.549 219.059 446 218.531C446.451 218.003 447.017 217.594 447.698 217.302C448.378 217.003 449.17 216.854 450.073 216.854C450.872 216.854 451.587 216.983 452.219 217.24C452.851 217.497 453.385 217.865 453.823 218.344C454.267 218.823 454.604 219.403 454.833 220.083C455.069 220.764 455.188 221.528 455.188 222.375V223.802H445.979V221.604H451.76V221.333C451.767 220.958 451.701 220.639 451.563 220.375C451.431 220.111 451.236 219.91 450.979 219.771C450.722 219.632 450.41 219.563 450.042 219.563C449.66 219.563 449.344 219.646 449.094 219.813C448.851 219.979 448.66 220.208 448.521 220.5C448.389 220.785 448.295 221.115 448.24 221.49C448.184 221.865 448.156 222.26 448.156 222.677V223.073C448.156 223.49 448.212 223.868 448.323 224.208C448.441 224.549 448.608 224.84 448.823 225.083C449.045 225.319 449.309 225.503 449.615 225.635C449.927 225.767 450.281 225.833 450.677 225.833C451.156 225.833 451.628 225.743 452.094 225.563C452.559 225.382 452.958 225.083 453.292 224.667L454.885 226.563C454.656 226.889 454.33 227.205 453.906 227.51C453.49 227.816 452.99 228.066 452.406 228.26C451.823 228.448 451.17 228.542 450.448 228.542ZM462.813 223.573V213.167H466.458V223.573C466.458 224.587 466.226 225.465 465.76 226.208C465.302 226.951 464.677 227.528 463.885 227.938C463.101 228.34 462.219 228.542 461.24 228.542C460.226 228.542 459.323 228.372 458.531 228.031C457.747 227.691 457.128 227.167 456.677 226.458C456.233 225.75 456.01 224.847 456.01 223.75H459.677C459.677 224.264 459.736 224.667 459.854 224.958C459.972 225.243 460.146 225.444 460.375 225.563C460.611 225.674 460.899 225.729 461.24 225.729C461.573 225.729 461.854 225.646 462.083 225.479C462.319 225.306 462.5 225.059 462.625 224.74C462.75 224.413 462.813 224.024 462.813 223.573ZM476.594 224.302C476.594 224.066 476.559 223.854 476.49 223.667C476.42 223.472 476.292 223.292 476.104 223.125C475.917 222.958 475.646 222.792 475.292 222.625C474.944 222.451 474.486 222.271 473.917 222.083C473.25 221.861 472.608 221.611 471.99 221.333C471.372 221.049 470.819 220.719 470.333 220.344C469.847 219.962 469.462 219.517 469.177 219.01C468.892 218.497 468.75 217.899 468.75 217.219C468.75 216.566 468.896 215.979 469.188 215.458C469.479 214.931 469.885 214.483 470.406 214.115C470.934 213.74 471.552 213.455 472.26 213.26C472.969 213.059 473.743 212.958 474.583 212.958C475.694 212.958 476.674 213.153 477.521 213.542C478.375 213.924 479.042 214.469 479.521 215.177C480.007 215.878 480.25 216.708 480.25 217.667H476.615C476.615 217.285 476.535 216.948 476.375 216.656C476.222 216.365 475.99 216.135 475.677 215.969C475.365 215.802 474.972 215.719 474.5 215.719C474.042 215.719 473.656 215.788 473.344 215.927C473.031 216.066 472.795 216.253 472.635 216.49C472.476 216.719 472.396 216.972 472.396 217.25C472.396 217.479 472.458 217.688 472.583 217.875C472.715 218.056 472.899 218.226 473.135 218.385C473.378 218.545 473.67 218.698 474.01 218.844C474.358 218.99 474.747 219.132 475.177 219.271C475.983 219.528 476.698 219.816 477.323 220.135C477.955 220.448 478.486 220.806 478.917 221.208C479.354 221.604 479.684 222.056 479.906 222.563C480.135 223.069 480.25 223.642 480.25 224.281C480.25 224.962 480.118 225.566 479.854 226.094C479.59 226.622 479.212 227.069 478.719 227.438C478.226 227.799 477.635 228.073 476.948 228.26C476.26 228.448 475.493 228.542 474.646 228.542C473.868 228.542 473.101 228.444 472.344 228.25C471.594 228.049 470.913 227.743 470.302 227.333C469.691 226.917 469.201 226.385 468.833 225.74C468.472 225.087 468.292 224.313 468.292 223.417H471.958C471.958 223.861 472.017 224.236 472.135 224.542C472.253 224.847 472.427 225.094 472.656 225.281C472.885 225.462 473.167 225.594 473.5 225.677C473.833 225.753 474.215 225.792 474.646 225.792C475.111 225.792 475.486 225.726 475.771 225.594C476.056 225.455 476.264 225.274 476.396 225.052C476.528 224.823 476.594 224.573 476.594 224.302Z" fill="white"/>
<rect x="571" y="196.333" width="208" height="49.3333" rx="4.66667" fill="#888888" stroke="#888888" stroke-width="4"/>
<path d="M636.958 225.521V228.333H628.875V225.521H636.958ZM630.177 213.167V228.333H626.521V213.167H630.177ZM635.917 219.188V221.906H628.875V219.188H635.917ZM636.99 213.167V215.99H628.875V213.167H636.99ZM641.271 217.063L642.854 220.167L644.49 217.063H648.135L645.177 222.552L648.292 228.333H644.615L642.854 225L641.104 228.333H637.427L640.542 222.552L637.594 217.063H641.271ZM652.833 219.229V232.667H649.323V217.063H652.594L652.833 219.229ZM659.75 222.563V222.781C659.75 223.601 659.656 224.361 659.469 225.063C659.281 225.764 659.003 226.375 658.635 226.896C658.267 227.417 657.809 227.823 657.26 228.115C656.719 228.399 656.09 228.542 655.375 228.542C654.701 228.542 654.122 228.392 653.635 228.094C653.149 227.795 652.743 227.382 652.417 226.854C652.09 226.326 651.826 225.722 651.625 225.042C651.424 224.361 651.264 223.642 651.146 222.885V222.604C651.264 221.792 651.424 221.038 651.625 220.344C651.826 219.642 652.09 219.031 652.417 218.51C652.743 217.99 653.146 217.583 653.625 217.292C654.111 217 654.691 216.854 655.365 216.854C656.08 216.854 656.708 216.99 657.25 217.26C657.799 217.531 658.257 217.92 658.625 218.427C659 218.927 659.281 219.528 659.469 220.229C659.656 220.931 659.75 221.708 659.75 222.563ZM656.24 222.781V222.563C656.24 222.125 656.208 221.726 656.146 221.365C656.083 220.997 655.983 220.677 655.844 220.406C655.712 220.135 655.535 219.927 655.312 219.781C655.09 219.635 654.816 219.563 654.49 219.563C654.115 219.563 653.799 219.622 653.542 219.74C653.292 219.851 653.09 220.024 652.937 220.26C652.792 220.49 652.687 220.778 652.625 221.125C652.569 221.465 652.545 221.865 652.552 222.323V223.177C652.538 223.705 652.59 224.17 652.708 224.573C652.826 224.969 653.031 225.278 653.323 225.5C653.615 225.722 654.01 225.833 654.51 225.833C654.844 225.833 655.122 225.757 655.344 225.604C655.566 225.444 655.743 225.226 655.875 224.948C656.007 224.663 656.101 224.337 656.156 223.969C656.212 223.601 656.24 223.205 656.24 222.781ZM664.854 219.854V228.333H661.344V217.063H664.625L664.854 219.854ZM668.188 216.979L668.125 220.24C667.986 220.226 667.799 220.208 667.563 220.188C667.326 220.167 667.128 220.156 666.969 220.156C666.559 220.156 666.205 220.205 665.906 220.302C665.615 220.392 665.372 220.531 665.177 220.719C664.99 220.899 664.851 221.128 664.76 221.406C664.677 221.684 664.639 222.007 664.646 222.375L664.01 221.958C664.01 221.201 664.083 220.514 664.229 219.896C664.382 219.271 664.597 218.733 664.875 218.281C665.153 217.823 665.49 217.472 665.885 217.229C666.281 216.979 666.726 216.854 667.219 216.854C667.392 216.854 667.563 216.865 667.729 216.885C667.903 216.906 668.056 216.938 668.188 216.979ZM674.646 228.542C673.729 228.542 672.91 228.399 672.188 228.115C671.465 227.823 670.854 227.424 670.354 226.917C669.861 226.41 669.483 225.826 669.219 225.167C668.962 224.507 668.833 223.809 668.833 223.073V222.677C668.833 221.851 668.948 221.087 669.177 220.385C669.406 219.677 669.747 219.059 670.198 218.531C670.649 218.003 671.215 217.594 671.896 217.302C672.576 217.003 673.368 216.854 674.271 216.854C675.069 216.854 675.785 216.983 676.417 217.24C677.049 217.497 677.583 217.865 678.021 218.344C678.465 218.823 678.802 219.403 679.031 220.083C679.267 220.764 679.385 221.528 679.385 222.375V223.802H670.177V221.604H675.958V221.333C675.965 220.958 675.899 220.639 675.76 220.375C675.628 220.111 675.434 219.91 675.177 219.771C674.92 219.632 674.608 219.563 674.24 219.563C673.858 219.563 673.542 219.646 673.292 219.813C673.049 219.979 672.858 220.208 672.719 220.5C672.587 220.785 672.493 221.115 672.438 221.49C672.382 221.865 672.354 222.26 672.354 222.677V223.073C672.354 223.49 672.41 223.868 672.521 224.208C672.639 224.549 672.806 224.84 673.021 225.083C673.243 225.319 673.507 225.503 673.813 225.635C674.125 225.767 674.479 225.833 674.875 225.833C675.354 225.833 675.826 225.743 676.292 225.563C676.757 225.382 677.156 225.083 677.49 224.667L679.083 226.563C678.854 226.889 678.528 227.205 678.104 227.51C677.688 227.816 677.188 228.066 676.604 228.26C676.021 228.448 675.368 228.542 674.646 228.542ZM686.719 225.167C686.719 224.972 686.653 224.806 686.521 224.667C686.396 224.521 686.174 224.389 685.854 224.271C685.535 224.146 685.087 224.021 684.51 223.896C683.962 223.778 683.444 223.622 682.958 223.427C682.479 223.233 682.059 222.997 681.698 222.719C681.337 222.441 681.052 222.111 680.844 221.729C680.642 221.347 680.542 220.91 680.542 220.417C680.542 219.938 680.642 219.486 680.844 219.063C681.052 218.632 681.354 218.253 681.75 217.927C682.153 217.594 682.642 217.333 683.219 217.146C683.795 216.951 684.451 216.854 685.188 216.854C686.201 216.854 687.076 217.01 687.813 217.323C688.549 217.628 689.115 218.059 689.51 218.615C689.913 219.163 690.115 219.799 690.115 220.521H686.604C686.604 220.236 686.556 219.993 686.458 219.792C686.368 219.59 686.219 219.438 686.01 219.333C685.802 219.222 685.524 219.167 685.177 219.167C684.934 219.167 684.712 219.212 684.51 219.302C684.316 219.392 684.16 219.517 684.042 219.677C683.924 219.837 683.865 220.024 683.865 220.24C683.865 220.392 683.899 220.531 683.969 220.656C684.045 220.774 684.16 220.885 684.313 220.99C684.465 221.087 684.66 221.177 684.896 221.26C685.132 221.337 685.417 221.406 685.75 221.469C686.507 221.608 687.215 221.806 687.875 222.063C688.535 222.319 689.069 222.684 689.479 223.156C689.896 223.628 690.104 224.264 690.104 225.063C690.104 225.563 689.99 226.024 689.76 226.448C689.531 226.865 689.201 227.233 688.771 227.552C688.34 227.865 687.823 228.108 687.219 228.281C686.615 228.455 685.934 228.542 685.177 228.542C684.101 228.542 683.191 228.351 682.448 227.969C681.705 227.58 681.142 227.094 680.76 226.51C680.385 225.92 680.198 225.323 680.198 224.719H683.469C683.483 225.066 683.566 225.351 683.719 225.573C683.878 225.795 684.09 225.958 684.354 226.063C684.618 226.167 684.924 226.219 685.271 226.219C685.59 226.219 685.854 226.174 686.063 226.083C686.278 225.993 686.441 225.872 686.552 225.719C686.663 225.559 686.719 225.375 686.719 225.167ZM697.656 225.167C697.656 224.972 697.59 224.806 697.458 224.667C697.333 224.521 697.111 224.389 696.792 224.271C696.472 224.146 696.024 224.021 695.448 223.896C694.899 223.778 694.382 223.622 693.896 223.427C693.417 223.233 692.997 222.997 692.635 222.719C692.274 222.441 691.99 222.111 691.781 221.729C691.58 221.347 691.479 220.91 691.479 220.417C691.479 219.938 691.58 219.486 691.781 219.063C691.99 218.632 692.292 218.253 692.688 217.927C693.09 217.594 693.58 217.333 694.156 217.146C694.733 216.951 695.389 216.854 696.125 216.854C697.139 216.854 698.014 217.01 698.75 217.323C699.486 217.628 700.052 218.059 700.448 218.615C700.851 219.163 701.052 219.799 701.052 220.521H697.542C697.542 220.236 697.493 219.993 697.396 219.792C697.306 219.59 697.156 219.438 696.948 219.333C696.74 219.222 696.462 219.167 696.115 219.167C695.872 219.167 695.649 219.212 695.448 219.302C695.253 219.392 695.097 219.517 694.979 219.677C694.861 219.837 694.802 220.024 694.802 220.24C694.802 220.392 694.837 220.531 694.906 220.656C694.983 220.774 695.097 220.885 695.25 220.99C695.403 221.087 695.597 221.177 695.833 221.26C696.069 221.337 696.354 221.406 696.688 221.469C697.444 221.608 698.153 221.806 698.813 222.063C699.472 222.319 700.007 222.684 700.417 223.156C700.833 223.628 701.042 224.264 701.042 225.063C701.042 225.563 700.927 226.024 700.698 226.448C700.469 226.865 700.139 227.233 699.708 227.552C699.278 227.865 698.76 228.108 698.156 228.281C697.552 228.455 696.872 228.542 696.115 228.542C695.038 228.542 694.128 228.351 693.385 227.969C692.642 227.58 692.08 227.094 691.698 226.51C691.323 225.92 691.135 225.323 691.135 224.719H694.406C694.42 225.066 694.503 225.351 694.656 225.573C694.816 225.795 695.028 225.958 695.292 226.063C695.556 226.167 695.861 226.219 696.208 226.219C696.528 226.219 696.792 226.174 697 226.083C697.215 225.993 697.378 225.872 697.49 225.719C697.601 225.559 697.656 225.375 697.656 225.167ZM708.885 223.573V213.167H712.531V223.573C712.531 224.587 712.299 225.465 711.833 226.208C711.375 226.951 710.75 227.528 709.958 227.938C709.174 228.34 708.292 228.542 707.313 228.542C706.299 228.542 705.396 228.372 704.604 228.031C703.819 227.691 703.201 227.167 702.75 226.458C702.306 225.75 702.083 224.847 702.083 223.75H705.75C705.75 224.264 705.809 224.667 705.927 224.958C706.045 225.243 706.219 225.444 706.448 225.563C706.684 225.674 706.972 225.729 707.313 225.729C707.646 225.729 707.927 225.646 708.156 225.479C708.392 225.306 708.573 225.059 708.698 224.74C708.823 224.413 708.885 224.024 708.885 223.573ZM720.594 225.167C720.594 224.972 720.528 224.806 720.396 224.667C720.271 224.521 720.049 224.389 719.729 224.271C719.41 224.146 718.962 224.021 718.385 223.896C717.837 223.778 717.319 223.622 716.833 223.427C716.354 223.233 715.934 222.997 715.573 222.719C715.212 222.441 714.927 222.111 714.719 221.729C714.517 221.347 714.417 220.91 714.417 220.417C714.417 219.938 714.517 219.486 714.719 219.063C714.927 218.632 715.229 218.253 715.625 217.927C716.028 217.594 716.517 217.333 717.094 217.146C717.67 216.951 718.326 216.854 719.063 216.854C720.076 216.854 720.951 217.01 721.688 217.323C722.424 217.628 722.99 218.059 723.385 218.615C723.788 219.163 723.99 219.799 723.99 220.521H720.479C720.479 220.236 720.431 219.993 720.333 219.792C720.243 219.59 720.094 219.438 719.885 219.333C719.677 219.222 719.399 219.167 719.052 219.167C718.809 219.167 718.587 219.212 718.385 219.302C718.191 219.392 718.035 219.517 717.917 219.677C717.799 219.837 717.74 220.024 717.74 220.24C717.74 220.392 717.774 220.531 717.844 220.656C717.92 220.774 718.035 220.885 718.188 220.99C718.34 221.087 718.535 221.177 718.771 221.26C719.007 221.337 719.292 221.406 719.625 221.469C720.382 221.608 721.09 221.806 721.75 222.063C722.41 222.319 722.944 222.684 723.354 223.156C723.771 223.628 723.979 224.264 723.979 225.063C723.979 225.563 723.865 226.024 723.635 226.448C723.406 226.865 723.076 227.233 722.646 227.552C722.215 227.865 721.698 228.108 721.094 228.281C720.49 228.455 719.809 228.542 719.052 228.542C717.976 228.542 717.066 228.351 716.323 227.969C715.58 227.58 715.017 227.094 714.635 226.51C714.26 225.92 714.073 225.323 714.073 224.719H717.344C717.358 225.066 717.441 225.351 717.594 225.573C717.753 225.795 717.965 225.958 718.229 226.063C718.493 226.167 718.799 226.219 719.146 226.219C719.465 226.219 719.729 226.174 719.938 226.083C720.153 225.993 720.316 225.872 720.427 225.719C720.538 225.559 720.594 225.375 720.594 225.167Z" fill="white"/>
<rect x="803" y="196.333" width="208" height="49.3333" rx="4.66667" fill="#888888" stroke="#888888" stroke-width="4"/>
<path d="M875.26 213.167H878.24L881.625 223.719L885.01 213.167H887.99L882.833 228.333H880.417L875.26 213.167ZM873.448 213.167H876.531L877.104 224.792V228.333H873.448V213.167ZM886.719 213.167H889.812V228.333H886.146V224.792L886.719 213.167ZM895.448 227.01L898.365 217.063H902.135L897.604 230.01C897.507 230.295 897.378 230.601 897.219 230.927C897.059 231.26 896.84 231.576 896.563 231.875C896.285 232.174 895.927 232.417 895.49 232.604C895.059 232.792 894.524 232.885 893.885 232.885C893.545 232.885 893.295 232.868 893.135 232.833C892.983 232.806 892.747 232.753 892.427 232.677V230.167C892.517 230.167 892.594 230.167 892.656 230.167C892.726 230.167 892.802 230.167 892.885 230.167C893.26 230.167 893.559 230.128 893.781 230.052C894.01 229.976 894.184 229.865 894.302 229.719C894.427 229.573 894.524 229.396 894.594 229.188L895.448 227.01ZM894.708 217.063L896.927 224.948L897.313 228.667H894.958L890.948 217.063H894.708ZM911.031 224.302C911.031 224.066 910.997 223.854 910.927 223.667C910.858 223.472 910.729 223.292 910.542 223.125C910.354 222.958 910.083 222.792 909.729 222.625C909.382 222.451 908.924 222.271 908.354 222.083C907.688 221.861 907.045 221.611 906.427 221.333C905.809 221.049 905.257 220.719 904.771 220.344C904.285 219.962 903.899 219.517 903.615 219.01C903.33 218.497 903.188 217.899 903.188 217.219C903.188 216.566 903.333 215.979 903.625 215.458C903.917 214.931 904.323 214.483 904.844 214.115C905.372 213.74 905.99 213.455 906.698 213.26C907.406 213.059 908.181 212.958 909.021 212.958C910.132 212.958 911.111 213.153 911.958 213.542C912.813 213.924 913.479 214.469 913.958 215.177C914.444 215.878 914.688 216.708 914.688 217.667H911.052C911.052 217.285 910.972 216.948 910.813 216.656C910.66 216.365 910.427 216.135 910.115 215.969C909.802 215.802 909.41 215.719 908.938 215.719C908.479 215.719 908.094 215.788 907.781 215.927C907.469 216.066 907.233 216.253 907.073 216.49C906.913 216.719 906.833 216.972 906.833 217.25C906.833 217.479 906.896 217.688 907.021 217.875C907.153 218.056 907.337 218.226 907.573 218.385C907.816 218.545 908.108 218.698 908.448 218.844C908.795 218.99 909.184 219.132 909.615 219.271C910.42 219.528 911.135 219.816 911.76 220.135C912.392 220.448 912.924 220.806 913.354 221.208C913.792 221.604 914.122 222.056 914.344 222.563C914.573 223.069 914.688 223.642 914.688 224.281C914.688 224.962 914.556 225.566 914.292 226.094C914.028 226.622 913.649 227.069 913.156 227.438C912.663 227.799 912.073 228.073 911.385 228.26C910.698 228.448 909.931 228.542 909.083 228.542C908.306 228.542 907.538 228.444 906.781 228.25C906.031 228.049 905.351 227.743 904.74 227.333C904.128 226.917 903.639 226.385 903.271 225.74C902.91 225.087 902.729 224.313 902.729 223.417H906.396C906.396 223.861 906.455 224.236 906.573 224.542C906.691 224.847 906.865 225.094 907.094 225.281C907.323 225.462 907.604 225.594 907.938 225.677C908.271 225.753 908.653 225.792 909.083 225.792C909.549 225.792 909.924 225.726 910.208 225.594C910.493 225.455 910.701 225.274 910.833 225.052C910.965 224.823 911.031 224.573 911.031 224.302ZM925.031 225.833L929.26 229.188L926.99 231.104L922.833 227.75L925.031 225.833ZM929.437 220.448V221.063C929.437 222.222 929.274 223.264 928.948 224.188C928.628 225.104 928.17 225.889 927.573 226.542C926.983 227.188 926.285 227.684 925.479 228.031C924.674 228.372 923.785 228.542 922.812 228.542C921.833 228.542 920.937 228.372 920.125 228.031C919.319 227.684 918.618 227.188 918.021 226.542C917.431 225.889 916.972 225.104 916.646 224.188C916.326 223.264 916.167 222.222 916.167 221.063V220.448C916.167 219.288 916.326 218.247 916.646 217.323C916.972 216.399 917.427 215.615 918.01 214.969C918.601 214.316 919.299 213.819 920.104 213.479C920.917 213.132 921.812 212.958 922.792 212.958C923.764 212.958 924.653 213.132 925.458 213.479C926.271 213.819 926.972 214.316 927.562 214.969C928.16 215.615 928.622 216.399 928.948 217.323C929.274 218.247 929.437 219.288 929.437 220.448ZM925.719 221.063V220.427C925.719 219.677 925.653 219.017 925.521 218.448C925.396 217.872 925.208 217.389 924.958 217C924.708 216.611 924.399 216.319 924.031 216.125C923.67 215.924 923.257 215.823 922.792 215.823C922.306 215.823 921.882 215.924 921.521 216.125C921.16 216.319 920.858 216.611 920.615 217C920.372 217.389 920.187 217.872 920.062 218.448C919.944 219.017 919.885 219.677 919.885 220.427V221.063C919.885 221.806 919.944 222.465 920.062 223.042C920.187 223.611 920.372 224.094 920.615 224.49C920.865 224.885 921.17 225.184 921.531 225.385C921.899 225.587 922.326 225.688 922.812 225.688C923.278 225.688 923.691 225.587 924.052 225.385C924.413 225.184 924.715 224.885 924.958 224.49C925.208 224.094 925.396 223.611 925.521 223.042C925.653 222.465 925.719 221.806 925.719 221.063ZM941.323 225.521V228.333H933.656V225.521H941.323ZM934.958 213.167V228.333H931.302V213.167H934.958Z" fill="white"/>
<rect x="1035" y="196.333" width="208" height="49.3333" rx="4.66667" fill="#888888" stroke="#888888" stroke-width="4"/>
<path d="M1102.33 213.167V228.333H1098.68V213.167H1102.33ZM1108.23 219.479V222.292H1101.29V219.479H1108.23ZM1108.82 213.167V215.99H1101.29V213.167H1108.82ZM1113.89 217.063V228.333H1110.36V217.063H1113.89ZM1110.16 214.156C1110.16 213.656 1110.34 213.247 1110.7 212.927C1111.06 212.608 1111.53 212.448 1112.1 212.448C1112.68 212.448 1113.15 212.608 1113.51 212.927C1113.87 213.247 1114.05 213.656 1114.05 214.156C1114.05 214.656 1113.87 215.066 1113.51 215.385C1113.15 215.705 1112.68 215.865 1112.1 215.865C1111.53 215.865 1111.06 215.705 1110.7 215.385C1110.34 215.066 1110.16 214.656 1110.16 214.156ZM1119.59 219.854V228.333H1116.08V217.063H1119.36L1119.59 219.854ZM1122.93 216.979L1122.86 220.24C1122.73 220.226 1122.54 220.208 1122.3 220.188C1122.07 220.167 1121.87 220.156 1121.71 220.156C1121.3 220.156 1120.94 220.205 1120.65 220.302C1120.35 220.392 1120.11 220.531 1119.92 220.719C1119.73 220.899 1119.59 221.128 1119.5 221.406C1119.42 221.684 1119.38 222.007 1119.39 222.375L1118.75 221.958C1118.75 221.201 1118.82 220.514 1118.97 219.896C1119.12 219.271 1119.34 218.733 1119.61 218.281C1119.89 217.823 1120.23 217.472 1120.63 217.229C1121.02 216.979 1121.47 216.854 1121.96 216.854C1122.13 216.854 1122.3 216.865 1122.47 216.885C1122.64 216.906 1122.8 216.938 1122.93 216.979ZM1129.39 228.542C1128.47 228.542 1127.65 228.399 1126.93 228.115C1126.2 227.823 1125.59 227.424 1125.09 226.917C1124.6 226.41 1124.22 225.826 1123.96 225.167C1123.7 224.507 1123.57 223.809 1123.57 223.073V222.677C1123.57 221.851 1123.69 221.087 1123.92 220.385C1124.15 219.677 1124.49 219.059 1124.94 218.531C1125.39 218.003 1125.95 217.594 1126.64 217.302C1127.32 217.003 1128.11 216.854 1129.01 216.854C1129.81 216.854 1130.52 216.983 1131.16 217.24C1131.79 217.497 1132.32 217.865 1132.76 218.344C1133.2 218.823 1133.54 219.403 1133.77 220.083C1134.01 220.764 1134.13 221.528 1134.13 222.375V223.802H1124.92V221.604H1130.7V221.333C1130.7 220.958 1130.64 220.639 1130.5 220.375C1130.37 220.111 1130.17 219.91 1129.92 219.771C1129.66 219.632 1129.35 219.563 1128.98 219.563C1128.6 219.563 1128.28 219.646 1128.03 219.813C1127.79 219.979 1127.6 220.208 1127.46 220.5C1127.33 220.785 1127.23 221.115 1127.18 221.49C1127.12 221.865 1127.09 222.26 1127.09 222.677V223.073C1127.09 223.49 1127.15 223.868 1127.26 224.208C1127.38 224.549 1127.55 224.84 1127.76 225.083C1127.98 225.319 1128.25 225.503 1128.55 225.635C1128.86 225.767 1129.22 225.833 1129.61 225.833C1130.09 225.833 1130.57 225.743 1131.03 225.563C1131.5 225.382 1131.9 225.083 1132.23 224.667L1133.82 226.563C1133.59 226.889 1133.27 227.205 1132.84 227.51C1132.43 227.816 1131.93 228.066 1131.34 228.26C1130.76 228.448 1130.11 228.542 1129.39 228.542ZM1135.58 212.333H1139.09V225.563L1138.73 228.333H1135.58V212.333ZM1146.01 222.573V222.792C1146.01 223.646 1145.92 224.424 1145.75 225.125C1145.58 225.826 1145.31 226.434 1144.95 226.948C1144.59 227.455 1144.13 227.847 1143.58 228.125C1143.03 228.403 1142.39 228.542 1141.64 228.542C1140.95 228.542 1140.37 228.396 1139.89 228.104C1139.4 227.806 1138.99 227.396 1138.67 226.875C1138.34 226.347 1138.08 225.74 1137.88 225.052C1137.67 224.358 1137.51 223.615 1137.4 222.823V222.563C1137.51 221.778 1137.67 221.042 1137.88 220.354C1138.08 219.66 1138.34 219.052 1138.67 218.531C1138.99 218.003 1139.4 217.594 1139.88 217.302C1140.36 217.003 1140.94 216.854 1141.61 216.854C1142.37 216.854 1143.02 216.997 1143.57 217.281C1144.13 217.566 1144.59 217.965 1144.95 218.479C1145.31 218.993 1145.58 219.597 1145.75 220.292C1145.92 220.986 1146.01 221.747 1146.01 222.573ZM1142.5 222.792V222.573C1142.5 222.163 1142.48 221.778 1142.43 221.417C1142.38 221.056 1142.29 220.736 1142.17 220.458C1142.04 220.181 1141.86 219.962 1141.64 219.802C1141.41 219.642 1141.11 219.563 1140.74 219.563C1140.36 219.563 1140.05 219.625 1139.79 219.75C1139.54 219.875 1139.34 220.056 1139.19 220.292C1139.04 220.521 1138.94 220.806 1138.88 221.146C1138.81 221.479 1138.78 221.858 1138.79 222.281V223.104C1138.78 223.681 1138.83 224.174 1138.95 224.583C1139.07 224.993 1139.27 225.306 1139.56 225.521C1139.85 225.736 1140.25 225.844 1140.76 225.844C1141.14 225.844 1141.44 225.771 1141.67 225.625C1141.9 225.479 1142.08 225.271 1142.2 225C1142.32 224.729 1142.4 224.406 1142.44 224.031C1142.48 223.656 1142.5 223.243 1142.5 222.792ZM1153.43 225.5V220.854C1153.43 220.535 1153.38 220.26 1153.29 220.031C1153.2 219.802 1153.06 219.625 1152.86 219.5C1152.67 219.368 1152.41 219.302 1152.08 219.302C1151.82 219.302 1151.59 219.347 1151.41 219.438C1151.22 219.528 1151.08 219.663 1150.98 219.844C1150.88 220.024 1150.83 220.253 1150.83 220.531H1147.32C1147.32 220.01 1147.44 219.528 1147.67 219.083C1147.9 218.632 1148.24 218.24 1148.67 217.906C1149.1 217.573 1149.62 217.316 1150.23 217.135C1150.84 216.948 1151.52 216.854 1152.27 216.854C1153.17 216.854 1153.97 217.003 1154.67 217.302C1155.37 217.601 1155.93 218.049 1156.34 218.646C1156.75 219.236 1156.96 219.979 1156.96 220.875V225.49C1156.96 226.226 1157 226.785 1157.08 227.167C1157.17 227.542 1157.28 227.872 1157.44 228.156V228.333H1153.92C1153.75 227.986 1153.62 227.563 1153.54 227.063C1153.47 226.556 1153.43 226.035 1153.43 225.5ZM1153.85 221.448L1153.87 223.323H1152.32C1152 223.323 1151.72 223.368 1151.49 223.458C1151.27 223.549 1151.09 223.674 1150.95 223.833C1150.82 223.986 1150.72 224.16 1150.66 224.354C1150.6 224.549 1150.57 224.753 1150.57 224.969C1150.57 225.177 1150.62 225.365 1150.72 225.531C1150.82 225.691 1150.96 225.816 1151.14 225.906C1151.31 225.997 1151.5 226.042 1151.72 226.042C1152.11 226.042 1152.44 225.969 1152.71 225.823C1152.99 225.67 1153.2 225.486 1153.34 225.271C1153.49 225.056 1153.56 224.854 1153.56 224.667L1154.33 226.104C1154.19 226.382 1154.03 226.663 1153.85 226.948C1153.68 227.233 1153.46 227.497 1153.2 227.74C1152.94 227.976 1152.62 228.17 1152.25 228.323C1151.87 228.469 1151.42 228.542 1150.89 228.542C1150.19 228.542 1149.55 228.399 1148.97 228.115C1148.39 227.83 1147.93 227.434 1147.58 226.927C1147.24 226.413 1147.06 225.823 1147.06 225.156C1147.06 224.573 1147.17 224.052 1147.37 223.594C1147.59 223.135 1147.91 222.747 1148.34 222.427C1148.77 222.108 1149.32 221.865 1149.99 221.698C1150.66 221.531 1151.44 221.448 1152.34 221.448H1153.85ZM1164.81 225.167C1164.81 224.972 1164.75 224.806 1164.61 224.667C1164.49 224.521 1164.27 224.389 1163.95 224.271C1163.63 224.146 1163.18 224.021 1162.6 223.896C1162.06 223.778 1161.54 223.622 1161.05 223.427C1160.57 223.233 1160.15 222.997 1159.79 222.719C1159.43 222.441 1159.15 222.111 1158.94 221.729C1158.74 221.347 1158.64 220.91 1158.64 220.417C1158.64 219.938 1158.74 219.486 1158.94 219.063C1159.15 218.632 1159.45 218.253 1159.84 217.927C1160.25 217.594 1160.74 217.333 1161.31 217.146C1161.89 216.951 1162.55 216.854 1163.28 216.854C1164.3 216.854 1165.17 217.01 1165.91 217.323C1166.64 217.628 1167.21 218.059 1167.6 218.615C1168.01 219.163 1168.21 219.799 1168.21 220.521H1164.7C1164.7 220.236 1164.65 219.993 1164.55 219.792C1164.46 219.59 1164.31 219.438 1164.1 219.333C1163.9 219.222 1163.62 219.167 1163.27 219.167C1163.03 219.167 1162.81 219.212 1162.6 219.302C1162.41 219.392 1162.25 219.517 1162.14 219.677C1162.02 219.837 1161.96 220.024 1161.96 220.24C1161.96 220.392 1161.99 220.531 1162.06 220.656C1162.14 220.774 1162.25 220.885 1162.41 220.99C1162.56 221.087 1162.75 221.177 1162.99 221.26C1163.23 221.337 1163.51 221.406 1163.84 221.469C1164.6 221.608 1165.31 221.806 1165.97 222.063C1166.63 222.319 1167.16 222.684 1167.57 223.156C1167.99 223.628 1168.2 224.264 1168.2 225.063C1168.2 225.563 1168.08 226.024 1167.85 226.448C1167.62 226.865 1167.3 227.233 1166.86 227.552C1166.43 227.865 1165.92 228.108 1165.31 228.281C1164.71 228.455 1164.03 228.542 1163.27 228.542C1162.19 228.542 1161.28 228.351 1160.54 227.969C1159.8 227.58 1159.24 227.094 1158.85 226.51C1158.48 225.92 1158.29 225.323 1158.29 224.719H1161.56C1161.58 225.066 1161.66 225.351 1161.81 225.573C1161.97 225.795 1162.18 225.958 1162.45 226.063C1162.71 226.167 1163.02 226.219 1163.36 226.219C1163.68 226.219 1163.95 226.174 1164.16 226.083C1164.37 225.993 1164.53 225.872 1164.65 225.719C1164.76 225.559 1164.81 225.375 1164.81 225.167ZM1175.3 228.542C1174.39 228.542 1173.57 228.399 1172.84 228.115C1172.12 227.823 1171.51 227.424 1171.01 226.917C1170.52 226.41 1170.14 225.826 1169.87 225.167C1169.62 224.507 1169.49 223.809 1169.49 223.073V222.677C1169.49 221.851 1169.6 221.087 1169.83 220.385C1170.06 219.677 1170.4 219.059 1170.85 218.531C1171.31 218.003 1171.87 217.594 1172.55 217.302C1173.23 217.003 1174.02 216.854 1174.93 216.854C1175.73 216.854 1176.44 216.983 1177.07 217.24C1177.7 217.497 1178.24 217.865 1178.68 218.344C1179.12 218.823 1179.46 219.403 1179.69 220.083C1179.92 220.764 1180.04 221.528 1180.04 222.375V223.802H1170.83V221.604H1176.61V221.333C1176.62 220.958 1176.56 220.639 1176.42 220.375C1176.28 220.111 1176.09 219.91 1175.83 219.771C1175.58 219.632 1175.26 219.563 1174.9 219.563C1174.51 219.563 1174.2 219.646 1173.95 219.813C1173.7 219.979 1173.51 220.208 1173.37 220.5C1173.24 220.785 1173.15 221.115 1173.09 221.49C1173.04 221.865 1173.01 222.26 1173.01 222.677V223.073C1173.01 223.49 1173.07 223.868 1173.18 224.208C1173.3 224.549 1173.46 224.84 1173.68 225.083C1173.9 225.319 1174.16 225.503 1174.47 225.635C1174.78 225.767 1175.14 225.833 1175.53 225.833C1176.01 225.833 1176.48 225.743 1176.95 225.563C1177.41 225.382 1177.81 225.083 1178.15 224.667L1179.74 226.563C1179.51 226.889 1179.18 227.205 1178.76 227.51C1178.34 227.816 1177.84 228.066 1177.26 228.26C1176.68 228.448 1176.02 228.542 1175.3 228.542Z" fill="white"/>
</svg>
